<?xml version="1.0" encoding="UTF-8" standalone="no"?>
<!-- Created with Inkscape (http://www.inkscape.org/) -->

<svg
   xmlns:dc="http://purl.org/dc/elements/1.1/"
   xmlns:cc="http://creativecommons.org/ns#"
   xmlns:rdf="http://www.w3.org/1999/02/22-rdf-syntax-ns#"
   xmlns:svg="http://www.w3.org/2000/svg"
   xmlns="http://www.w3.org/2000/svg"
   xmlns:sodipodi="http://sodipodi.sourceforge.net/DTD/sodipodi-0.dtd"
   xmlns:inkscape="http://www.inkscape.org/namespaces/inkscape"
   width="626.37616"
   height="196.86749"
   id="svg2"
   version="1.1"
   inkscape:version="0.48.4 r9939"
   sodipodi:docname="shear_decomposition.pdf">
  <defs
     id="defs4">
    <marker
       inkscape:stockid="Arrow2Lstart"
       orient="auto"
       refY="0"
       refX="0"
       id="Arrow2Lstart"
       style="overflow:visible">
      <path
         id="path3953"
         style="font-size:12px;fill-rule:evenodd;stroke-width:0.625;stroke-linejoin:round"
         d="M 8.7185878,4.0337352 -2.2072895,0.01601326 8.7185884,-4.0017078 c -1.7454984,2.3720609 -1.7354408,5.6174519 -6e-7,8.035443 z"
         transform="matrix(1.1,0,0,1.1,1.1,0)"
         inkscape:connector-curvature="0" />
    </marker>
    <marker
       inkscape:stockid="Arrow2Lend"
       orient="auto"
       refY="0"
       refX="0"
       id="Arrow2Lend"
       style="overflow:visible">
      <path
         id="path3956"
         style="font-size:12px;fill-rule:evenodd;stroke-width:0.625;stroke-linejoin:round"
         d="M 8.7185878,4.0337352 -2.2072895,0.01601326 8.7185884,-4.0017078 c -1.7454984,2.3720609 -1.7354408,5.6174519 -6e-7,8.035443 z"
         transform="matrix(-1.1,0,0,-1.1,-1.1,0)"
         inkscape:connector-curvature="0" />
    </marker>
    <marker
       inkscape:stockid="Arrow1Lend"
       orient="auto"
       refY="0"
       refX="0"
       id="Arrow1Lend"
       style="overflow:visible">
      <path
         id="path3938"
         d="M 0,0 5,-5 -12.5,0 5,5 0,0 z"
         style="fill-rule:evenodd;stroke:#000000;stroke-width:1pt;marker-start:none"
         transform="matrix(-0.8,0,0,-0.8,-10,0)"
         inkscape:connector-curvature="0" />
    </marker>
    <marker
       inkscape:stockid="TriangleInM"
       orient="auto"
       refY="0"
       refX="0"
       id="TriangleInM"
       style="overflow:visible">
      <path
         id="path4072"
         d="m 5.77,0 -8.65,5 0,-10 8.65,5 z"
         style="fill-rule:evenodd;stroke:#000000;stroke-width:1pt;marker-start:none"
         transform="scale(-0.4,-0.4)"
         inkscape:connector-curvature="0" />
    </marker>
    <marker
       inkscape:stockid="Arrow1Mend"
       orient="auto"
       refY="0"
       refX="0"
       id="Arrow1Mend"
       style="overflow:visible">
      <path
         id="path3944"
         d="M 0,0 5,-5 -12.5,0 5,5 0,0 z"
         style="fill-rule:evenodd;stroke:#000000;stroke-width:1pt;marker-start:none"
         transform="matrix(-0.4,0,0,-0.4,-4,0)"
         inkscape:connector-curvature="0" />
    </marker>
    <marker
       inkscape:stockid="Arrow1Lstart"
       orient="auto"
       refY="0"
       refX="0"
       id="Arrow1Lstart"
       style="overflow:visible">
      <path
         id="path3935"
         d="M 0,0 5,-5 -12.5,0 5,5 0,0 z"
         style="fill-rule:evenodd;stroke:#000000;stroke-width:1pt;marker-start:none"
         transform="matrix(0.8,0,0,0.8,10,0)"
         inkscape:connector-curvature="0" />
    </marker>
    <marker
       inkscape:stockid="Arrow2Lend"
       orient="auto"
       refY="0"
       refX="0"
       id="Arrow2Lend-3"
       style="overflow:visible">
      <path
         inkscape:connector-curvature="0"
         id="path3956-2"
         style="font-size:12px;fill-rule:evenodd;stroke-width:0.625;stroke-linejoin:round"
         d="M 8.7185878,4.0337352 -2.2072895,0.01601326 8.7185884,-4.0017078 c -1.7454984,2.3720609 -1.7354408,5.6174519 -6e-7,8.035443 z"
         transform="matrix(-1.1,0,0,-1.1,-1.1,0)" />
    </marker>
    <marker
       inkscape:stockid="Arrow2Lend"
       orient="auto"
       refY="0"
       refX="0"
       id="Arrow2Lend-1"
       style="overflow:visible">
      <path
         inkscape:connector-curvature="0"
         id="path3956-6"
         style="font-size:12px;fill-rule:evenodd;stroke-width:0.625;stroke-linejoin:round"
         d="M 8.7185878,4.0337352 -2.2072895,0.01601326 8.7185884,-4.0017078 c -1.7454984,2.3720609 -1.7354408,5.6174519 -6e-7,8.035443 z"
         transform="matrix(-1.1,0,0,-1.1,-1.1,0)" />
    </marker>
    <marker
       inkscape:stockid="Arrow2Lstart"
       orient="auto"
       refY="0"
       refX="0"
       id="Arrow2Lstart-5"
       style="overflow:visible">
      <path
         inkscape:connector-curvature="0"
         id="path3953-7"
         style="font-size:12px;fill-rule:evenodd;stroke-width:0.625;stroke-linejoin:round"
         d="M 8.7185878,4.0337352 -2.2072895,0.01601326 8.7185884,-4.0017078 c -1.7454984,2.3720609 -1.7354408,5.6174519 -6e-7,8.035443 z"
         transform="matrix(1.1,0,0,1.1,1.1,0)" />
    </marker>
    <marker
       inkscape:stockid="Arrow2Lend"
       orient="auto"
       refY="0"
       refX="0"
       id="Arrow2Lend-1-4"
       style="overflow:visible">
      <path
         inkscape:connector-curvature="0"
         id="path3956-6-0"
         style="font-size:12px;fill-rule:evenodd;stroke-width:0.625;stroke-linejoin:round"
         d="M 8.7185878,4.0337352 -2.2072895,0.01601326 8.7185884,-4.0017078 c -1.7454984,2.3720609 -1.7354408,5.6174519 -6e-7,8.035443 z"
         transform="matrix(-1.1,0,0,-1.1,-1.1,0)" />
    </marker>
    <marker
       inkscape:stockid="Arrow2Lend"
       orient="auto"
       refY="0"
       refX="0"
       id="marker4110"
       style="overflow:visible">
      <path
         inkscape:connector-curvature="0"
         id="path4112"
         style="font-size:12px;fill-rule:evenodd;stroke-width:0.625;stroke-linejoin:round"
         d="M 8.7185878,4.0337352 -2.2072895,0.01601326 8.7185884,-4.0017078 c -1.7454984,2.3720609 -1.7354408,5.6174519 -6e-7,8.035443 z"
         transform="matrix(-1.1,0,0,-1.1,-1.1,0)" />
    </marker>
    <marker
       inkscape:stockid="Arrow2Lend"
       orient="auto"
       refY="0"
       refX="0"
       id="marker4114"
       style="overflow:visible">
      <path
         inkscape:connector-curvature="0"
         id="path4116"
         style="font-size:12px;fill-rule:evenodd;stroke-width:0.625;stroke-linejoin:round"
         d="M 8.7185878,4.0337352 -2.2072895,0.01601326 8.7185884,-4.0017078 c -1.7454984,2.3720609 -1.7354408,5.6174519 -6e-7,8.035443 z"
         transform="matrix(-1.1,0,0,-1.1,-1.1,0)" />
    </marker>
  </defs>
  <sodipodi:namedview
     id="base"
     pagecolor="#ffffff"
     bordercolor="#666666"
     borderopacity="1.0"
     inkscape:pageopacity="0.0"
     inkscape:pageshadow="2"
     inkscape:zoom="0.9714153"
     inkscape:cx="143.72629"
     inkscape:cy="273.7251"
     inkscape:document-units="px"
     inkscape:current-layer="layer1"
     showgrid="false"
     inkscape:window-width="1264"
     inkscape:window-height="1362"
     inkscape:window-x="0"
     inkscape:window-y="0"
     inkscape:window-maximized="0"
     fit-margin-top="4"
     fit-margin-bottom="4"
     fit-margin-left="0"
     fit-margin-right="0" />
  <metadata
     id="metadata7">
    <rdf:RDF>
      <cc:Work
         rdf:about="">
        <dc:format>image/svg+xml</dc:format>
        <dc:type
           rdf:resource="http://purl.org/dc/dcmitype/StillImage" />
        <dc:title></dc:title>
      </cc:Work>
    </rdf:RDF>
  </metadata>
  <g
     inkscape:label="Layer 1"
     inkscape:groupmode="layer"
     id="layer1"
     transform="translate(-44.022662,-62.701686)">
    <path
       style="fill:none;stroke:#000000;stroke-width:1px;stroke-linecap:butt;stroke-linejoin:miter;stroke-opacity:1"
       d="m 499.52887,151.6146 170.36997,0"
       id="path2985-1"
       inkscape:connector-curvature="0" />
    <path
       style="fill:none;stroke:#000000;stroke-width:1px;stroke-linecap:butt;stroke-linejoin:miter;stroke-opacity:1"
       d="m 580.3388,67.716399 0,166.766981"
       id="path2987-7"
       inkscape:connector-curvature="0" />
    <path
       style="fill:none;stroke:#000000;stroke-width:1px;stroke-linecap:butt;stroke-linejoin:miter;stroke-opacity:1"
       d="m 267.39335,151.6146 170.36997,0"
       id="path2985-4"
       inkscape:connector-curvature="0" />
    <path
       style="fill:none;stroke:#000000;stroke-width:1px;stroke-linecap:butt;stroke-linejoin:miter;stroke-opacity:1"
       d="m 348.20328,67.716399 0,166.766981"
       id="path2987-0"
       inkscape:connector-curvature="0" />
    <path
       style="fill:none;stroke:#000000;stroke-width:1px;stroke-linecap:butt;stroke-linejoin:miter;stroke-opacity:1"
       d="m 44.522662,151.09989 170.369968,0"
       id="path2985-9"
       inkscape:connector-curvature="0" />
    <path
       style="fill:none;stroke:#000000;stroke-width:1px;stroke-linecap:butt;stroke-linejoin:miter;stroke-opacity:1"
       d="m 125.33259,67.201686 0,166.766984"
       id="path2987-4"
       inkscape:connector-curvature="0" />
    <path
       sodipodi:type="arc"
       style="fill:none;stroke:#8e0000;stroke-width:0.70866144;stroke-linejoin:round;stroke-miterlimit:4;stroke-opacity:1;stroke-dasharray:none;marker-mid:url(#Arrow2Lend)"
       id="path3140"
       sodipodi:cx="125.58995"
       sodipodi:cy="150.58517"
       sodipodi:rx="13.382536"
       sodipodi:ry="13.382536"
       d="m 138.97249,150.58517 c 0,7.39098 -5.99157,13.38254 -13.38254,13.38254 -7.39097,0 -13.38254,-5.99156 -13.38254,-13.38254 0,-7.39097 5.99157,-13.38253 13.38254,-13.38253 7.39097,0 13.38254,5.99156 13.38254,13.38253 z" />
    <path
       sodipodi:type="arc"
       style="fill:none;stroke:#8e0000;stroke-width:0.70899999;stroke-linejoin:round;stroke-miterlimit:4;stroke-opacity:1;stroke-dasharray:none;stroke-dashoffset:0;marker-mid:url(#Arrow2Lend);marker-end:none"
       id="path3928"
       sodipodi:cx="125.58995"
       sodipodi:cy="150.58517"
       sodipodi:rx="40.662319"
       sodipodi:ry="40.662319"
       d="m 166.25227,150.58517 c 0,22.45718 -18.20514,40.66232 -40.66232,40.66232 -22.45718,0 -40.662319,-18.20514 -40.662319,-40.66232 0,-22.45717 18.205139,-40.66231 40.662319,-40.66231 22.45718,0 40.66232,18.20514 40.66232,40.66231 z"
       transform="matrix(0.4500026,0.89302724,-0.89302724,0.4500026,202.87121,-28.230328)" />
    <path
       sodipodi:type="arc"
       style="fill:none;stroke:#8e0000;stroke-width:0.70866144;stroke-linejoin:round;stroke-miterlimit:4;stroke-opacity:1;stroke-dasharray:none;marker-mid:url(#Arrow2Lend)"
       id="path3930"
       sodipodi:cx="125.07523"
       sodipodi:cy="150.07047"
       sodipodi:rx="74.11866"
       sodipodi:ry="74.11866"
       d="m 199.19389,150.07047 c 0,40.9346 -33.18405,74.11866 -74.11866,74.11866 -40.934602,0 -74.118657,-33.18406 -74.118657,-74.11866 0,-40.93461 33.184055,-74.118665 74.118657,-74.118665 40.93461,0 74.11866,33.184055 74.11866,74.118665 z"
       transform="matrix(0.86953632,0.493869,-0.493869,0.86953632,90.271797,-41.58208)" />
    <path
       sodipodi:type="arc"
       style="fill:none;stroke:#8e0000;stroke-width:0.70899999;stroke-linejoin:round;stroke-miterlimit:4;stroke-opacity:1;stroke-dasharray:none;stroke-dashoffset:0;marker-start:none;marker-mid:none;marker-end:url(#Arrow2Lend)"
       id="path6996"
       sodipodi:cx="380.37283"
       sodipodi:cy="124.84953"
       sodipodi:rx="45.809448"
       sodipodi:ry="45.809448"
       d="m 347.98066,157.2417 c -17.8897,-17.8897 -17.8897,-46.89464 0,-64.784338"
       sodipodi:start="2.3561945"
       sodipodi:end="3.9269908"
       sodipodi:open="true"
       transform="translate(63.8244,27.279784)" />
    <path
       sodipodi:type="arc"
       style="fill:none;stroke:#8e0000;stroke-width:0.70899999;stroke-linejoin:round;stroke-miterlimit:4;stroke-opacity:1;stroke-dasharray:none;stroke-dashoffset:0;marker-start:none;marker-mid:none;marker-end:url(#Arrow2Lend)"
       id="path6996-2"
       sodipodi:cx="380.37283"
       sodipodi:cy="124.84953"
       sodipodi:rx="45.809448"
       sodipodi:ry="45.809448"
       d="m 347.98066,157.2417 c -17.8897,-17.8897 -17.8897,-46.89464 0,-64.784338"
       sodipodi:start="2.3561945"
       sodipodi:end="3.9269908"
       sodipodi:open="true"
       transform="matrix(-1,0,0,-1,633.72133,276.30408)" />
    <path
       sodipodi:type="arc"
       style="fill:none;stroke:#8e0000;stroke-width:0.70899999;stroke-linejoin:round;stroke-miterlimit:4;stroke-opacity:1;stroke-dasharray:none;stroke-dashoffset:0;marker-start:url(#Arrow2Lstart);marker-mid:none;marker-end:none"
       id="path6996-2-8"
       sodipodi:cx="380.37283"
       sodipodi:cy="124.84953"
       sodipodi:rx="45.809448"
       sodipodi:ry="45.809448"
       d="m 347.98066,157.2417 c -17.8897,-17.8897 -17.8897,-46.89464 0,-64.784338"
       sodipodi:start="2.3561945"
       sodipodi:end="3.9269908"
       sodipodi:open="true"
       transform="matrix(0,-1,1,0,222.22702,440.53714)" />
    <path
       sodipodi:type="arc"
       style="fill:none;stroke:#8e0000;stroke-width:0.70899999;stroke-linejoin:round;stroke-miterlimit:4;stroke-opacity:1;stroke-dasharray:none;stroke-dashoffset:0;marker-start:url(#Arrow2Lstart);marker-mid:none;marker-end:none"
       id="path6996-2-8-6"
       sodipodi:cx="380.37283"
       sodipodi:cy="124.84953"
       sodipodi:rx="45.809448"
       sodipodi:ry="45.809448"
       d="m 347.98066,157.2417 c -17.8897,-17.8897 -17.8897,-46.89464 0,-64.784338"
       sodipodi:start="2.3561945"
       sodipodi:end="3.9269908"
       sodipodi:open="true"
       transform="matrix(0,1,-1,0,472.94669,-144.00803)" />
    <path
       style="fill:#000000;fill-opacity:0;stroke:#8e0000;stroke-width:0.709;stroke-linejoin:round;stroke-miterlimit:4;stroke-opacity:1;stroke-dasharray:none;stroke-dashoffset:0;marker-end:url(#Arrow2Lend-1)"
       d="m 536.33086,78.483522 20.58851,0"
       id="path3053"
       inkscape:connector-curvature="0"
       transform="translate(44.022662,62.701686)" />
    <path
       style="fill:#000000;fill-opacity:0;stroke:#8e0000;stroke-width:0.709;stroke-linejoin:round;stroke-miterlimit:4;stroke-opacity:1;stroke-dasharray:none;stroke-dashoffset:0;marker-end:url(#Arrow2Lend-1)"
       d="m 535.81614,58.924432 35.51519,0"
       id="path3055"
       inkscape:connector-curvature="0"
       transform="translate(44.022662,62.701686)" />
    <path
       style="fill:#000000;fill-opacity:0;stroke:#8e0000;stroke-width:0.709;stroke-linejoin:round;stroke-miterlimit:4;stroke-opacity:1;stroke-dasharray:none;stroke-dashoffset:0;marker-end:url(#Arrow2Lend-1)"
       d="m 579.58145,102.06702 50.44186,0"
       id="path3055-7"
       inkscape:connector-curvature="0"
       sodipodi:nodetypes="cc" />
    <path
       style="fill:#000000;fill-opacity:0;stroke:#8e0000;stroke-width:0.70899999;stroke-linejoin:round;stroke-miterlimit:4;stroke-opacity:1;stroke-dasharray:none;stroke-dashoffset:0;marker-end:url(#Arrow2Lend-1)"
       d="m 579.87498,163.30537 -20.58851,0"
       id="path3053-9"
       inkscape:connector-curvature="0" />
    <path
       style="fill:#000000;fill-opacity:0;stroke:#8e0000;stroke-width:0.70899999;stroke-linejoin:round;stroke-miterlimit:4;stroke-opacity:1;stroke-dasharray:none;stroke-dashoffset:0;marker-end:url(#Arrow2Lend-1)"
       d="m 580.3897,182.86446 -35.51519,0"
       id="path3055-4"
       inkscape:connector-curvature="0" />
    <path
       style="fill:#000000;fill-opacity:0;stroke:#8e0000;stroke-width:0.70899999;stroke-linejoin:round;stroke-miterlimit:4;stroke-opacity:1;stroke-dasharray:none;stroke-dashoffset:0;marker-end:url(#Arrow2Lend-1)"
       d="m 580.64705,202.42355 -50.44186,0"
       id="path3055-7-8"
       inkscape:connector-curvature="0"
       sodipodi:nodetypes="cc" />
  </g>
</svg>
